<mxfile host="app.diagrams.net" modified="2022-09-02T10:16:26.092Z" agent="5.0 (Windows NT 10.0; Win64; x64) AppleWebKit/537.36 (KHTML, like Gecko) Chrome/104.0.5112.102 Safari/537.36 Edg/104.0.1293.70" etag="25XSI33apJKeHAWm0Dkl" version="20.2.7" type="github">
  <diagram id="pnZ6edSlzVu-WZWjTX7p" name="Pagina-1">
    <mxGraphModel dx="2249" dy="762" grid="0" gridSize="10" guides="1" tooltips="1" connect="1" arrows="1" fold="1" page="1" pageScale="1" pageWidth="827" pageHeight="1169" math="0" shadow="0">
      <root>
        <mxCell id="0" />
        <mxCell id="1" parent="0" />
        <mxCell id="plO3cyClL-W6rMamEfPt-12" value="&lt;b&gt;Esportazione&lt;/b&gt;" style="edgeStyle=orthogonalEdgeStyle;rounded=0;orthogonalLoop=1;jettySize=auto;html=1;exitX=1;exitY=0.5;exitDx=0;exitDy=0;entryX=0;entryY=0.5;entryDx=0;entryDy=0;fontSize=15;" edge="1" parent="1" source="plO3cyClL-W6rMamEfPt-1" target="plO3cyClL-W6rMamEfPt-3">
          <mxGeometry x="-0.0619" y="12" relative="1" as="geometry">
            <mxPoint as="offset" />
          </mxGeometry>
        </mxCell>
        <mxCell id="plO3cyClL-W6rMamEfPt-1" value="&lt;font style=&quot;font-size: 15px;&quot;&gt;&lt;b&gt;FAST&lt;/b&gt;&lt;/font&gt;" style="rounded=1;whiteSpace=wrap;html=1;strokeWidth=2;fillColor=#dae8fc;strokeColor=#6c8ebf;" vertex="1" parent="1">
          <mxGeometry x="-90" y="76" width="67" height="60" as="geometry" />
        </mxCell>
        <mxCell id="plO3cyClL-W6rMamEfPt-5" value="&lt;b&gt;Integrazione &amp;amp; Importazione&lt;/b&gt;" style="edgeStyle=orthogonalEdgeStyle;rounded=0;orthogonalLoop=1;jettySize=auto;html=1;fontSize=15;entryX=0;entryY=0.5;entryDx=0;entryDy=0;" edge="1" parent="1" source="plO3cyClL-W6rMamEfPt-3" target="plO3cyClL-W6rMamEfPt-6">
          <mxGeometry x="-0.0067" y="11" relative="1" as="geometry">
            <mxPoint x="398" y="106" as="targetPoint" />
            <mxPoint as="offset" />
          </mxGeometry>
        </mxCell>
        <mxCell id="plO3cyClL-W6rMamEfPt-3" value="&lt;b&gt;PS.xls&lt;/b&gt;" style="rounded=0;whiteSpace=wrap;html=1;fontSize=15;strokeWidth=2;" vertex="1" parent="1">
          <mxGeometry x="87" y="87.5" width="68" height="37" as="geometry" />
        </mxCell>
        <mxCell id="plO3cyClL-W6rMamEfPt-15" style="edgeStyle=orthogonalEdgeStyle;rounded=0;orthogonalLoop=1;jettySize=auto;html=1;exitX=0.5;exitY=1;exitDx=0;exitDy=0;entryX=0.5;entryY=0;entryDx=0;entryDy=0;fontSize=14;" edge="1" parent="1" source="plO3cyClL-W6rMamEfPt-6" target="plO3cyClL-W6rMamEfPt-14">
          <mxGeometry relative="1" as="geometry" />
        </mxCell>
        <mxCell id="plO3cyClL-W6rMamEfPt-6" value="&lt;font style=&quot;font-size: 15px;&quot;&gt;&lt;b&gt;HaDes&lt;/b&gt;&lt;/font&gt;" style="rounded=1;whiteSpace=wrap;html=1;strokeWidth=2;fillColor=#f8cecc;strokeColor=#b85450;" vertex="1" parent="1">
          <mxGeometry x="382" y="76" width="67" height="60" as="geometry" />
        </mxCell>
        <mxCell id="plO3cyClL-W6rMamEfPt-8" value="&lt;b&gt;PP_HaDes.sqlite&lt;/b&gt;" style="rounded=0;whiteSpace=wrap;html=1;fontSize=15;strokeWidth=2;" vertex="1" parent="1">
          <mxGeometry x="570" y="87.5" width="131" height="37" as="geometry" />
        </mxCell>
        <mxCell id="plO3cyClL-W6rMamEfPt-10" value="&lt;font style=&quot;font-size: 15px;&quot;&gt;&lt;b&gt;FAST&lt;/b&gt;&lt;/font&gt;" style="rounded=1;whiteSpace=wrap;html=1;strokeWidth=2;fillColor=#dae8fc;strokeColor=#6c8ebf;" vertex="1" parent="1">
          <mxGeometry x="817" y="76" width="67" height="60" as="geometry" />
        </mxCell>
        <mxCell id="plO3cyClL-W6rMamEfPt-14" value="&lt;p style=&quot;text-align: center; margin: 4px 0px 0px;&quot;&gt;&lt;b&gt;&lt;font style=&quot;font-size: 15px;&quot;&gt;Elaborati&lt;/font&gt;&lt;/b&gt;&lt;/p&gt;&lt;hr style=&quot;text-align: center;&quot; size=&quot;1&quot;&gt;&lt;p style=&quot;margin:0px;margin-left:4px;&quot;&gt;&lt;/p&gt;&lt;p style=&quot;margin:0px;margin-left:4px;&quot;&gt;&lt;/p&gt;&lt;ul style=&quot;font-size: 14px;&quot;&gt;&lt;li style=&quot;&quot;&gt;&lt;b style=&quot;&quot;&gt;&lt;font style=&quot;font-size: 14px;&quot;&gt;Viste Verticali delle apparecchiature&lt;/font&gt;&lt;/b&gt;&lt;/li&gt;&lt;li style=&quot;&quot;&gt;&lt;b&gt;&lt;font style=&quot;font-size: 14px;&quot;&gt;Piano Cavi&lt;/font&gt;&lt;/b&gt;&lt;/li&gt;&lt;li style=&quot;&quot;&gt;&lt;b&gt;&lt;font style=&quot;font-size: 14px;&quot;&gt;Allacciamenti di Cabina&lt;/font&gt;&lt;/b&gt;&lt;/li&gt;&lt;li style=&quot;&quot;&gt;&lt;b&gt;&lt;font style=&quot;font-size: 14px;&quot;&gt;Allacciamenti di Piazzale&lt;/font&gt;&lt;/b&gt;&lt;/li&gt;&lt;li style=&quot;&quot;&gt;&lt;b&gt;&lt;font style=&quot;font-size: 14px;&quot;&gt;Carichi Elettrici&lt;/font&gt;&lt;/b&gt;&lt;/li&gt;&lt;li style=&quot;&quot;&gt;&lt;b&gt;&lt;font style=&quot;font-size: 14px;&quot;&gt;Carichi Termici&lt;/font&gt;&lt;/b&gt;&lt;/li&gt;&lt;li style=&quot;&quot;&gt;&lt;b&gt;&lt;font style=&quot;font-size: 14px;&quot;&gt;Elenco Materiali&lt;/font&gt;&lt;/b&gt;&lt;/li&gt;&lt;/ul&gt;&lt;p style=&quot;font-size: 14px;&quot;&gt;&lt;/p&gt;&lt;p style=&quot;margin: 0px 0px 0px 4px; font-size: 14px;&quot;&gt;&lt;br&gt;&lt;/p&gt;&lt;p style=&quot;margin:0px;margin-left:4px;&quot;&gt;&lt;br&gt;&lt;/p&gt;" style="verticalAlign=top;align=left;overflow=fill;fontSize=12;fontFamily=Helvetica;html=1;strokeWidth=2;" vertex="1" parent="1">
          <mxGeometry x="233" y="181" width="365" height="165" as="geometry" />
        </mxCell>
        <mxCell id="plO3cyClL-W6rMamEfPt-18" value="&lt;b&gt;Esportazione&lt;/b&gt;" style="edgeStyle=orthogonalEdgeStyle;rounded=0;orthogonalLoop=1;jettySize=auto;html=1;exitX=1;exitY=0.492;exitDx=0;exitDy=0;entryX=0;entryY=0.486;entryDx=0;entryDy=0;fontSize=15;exitPerimeter=0;entryPerimeter=0;" edge="1" parent="1" source="plO3cyClL-W6rMamEfPt-6" target="plO3cyClL-W6rMamEfPt-8">
          <mxGeometry x="-0.0619" y="12" relative="1" as="geometry">
            <mxPoint x="460" y="105.5" as="sourcePoint" />
            <mxPoint x="581" y="105.5" as="targetPoint" />
            <mxPoint as="offset" />
          </mxGeometry>
        </mxCell>
        <mxCell id="plO3cyClL-W6rMamEfPt-19" value="&lt;b&gt;&amp;nbsp;Importazione&lt;/b&gt;" style="edgeStyle=orthogonalEdgeStyle;rounded=0;orthogonalLoop=1;jettySize=auto;html=1;fontSize=15;entryX=0;entryY=0.5;entryDx=0;entryDy=0;exitX=1;exitY=0.5;exitDx=0;exitDy=0;" edge="1" parent="1" source="plO3cyClL-W6rMamEfPt-8" target="plO3cyClL-W6rMamEfPt-10">
          <mxGeometry x="-0.0067" y="11" relative="1" as="geometry">
            <mxPoint x="165" y="116" as="sourcePoint" />
            <mxPoint x="396" y="116" as="targetPoint" />
            <mxPoint as="offset" />
          </mxGeometry>
        </mxCell>
      </root>
    </mxGraphModel>
  </diagram>
</mxfile>
